<?xml version="1.0" encoding="utf-8" standalone="no"?>
<!DOCTYPE svg PUBLIC "-//W3C//DTD SVG 1.1//EN"
  "http://www.w3.org/Graphics/SVG/1.1/DTD/svg11.dtd">
<svg xmlns:xlink="http://www.w3.org/1999/xlink" width="864pt" height="576pt" viewBox="0 0 864 576" xmlns="http://www.w3.org/2000/svg" version="1.1">
 <metadata>
  <rdf:RDF xmlns:dc="http://purl.org/dc/elements/1.1/" xmlns:cc="http://creativecommons.org/ns#" xmlns:rdf="http://www.w3.org/1999/02/22-rdf-syntax-ns#">
   <cc:Work>
    <dc:type rdf:resource="http://purl.org/dc/dcmitype/StillImage"/>
    <dc:date>2025-01-05T12:28:14.076526</dc:date>
    <dc:format>image/svg+xml</dc:format>
    <dc:creator>
     <cc:Agent>
      <dc:title>Matplotlib v3.9.0, https://matplotlib.org/</dc:title>
     </cc:Agent>
    </dc:creator>
   </cc:Work>
  </rdf:RDF>
 </metadata>
 <defs>
  <style type="text/css">*{stroke-linejoin: round; stroke-linecap: butt}</style>
 </defs>
 <g id="figure_1">
  <g id="patch_1">
   <path d="M 0 576 
L 864 576 
L 864 0 
L 0 0 
z
" style="fill: #ffffff"/>
  </g>
  <g id="axes_1">
   <g id="text_1">
    <g id="patch_2">
     <path d="M 125.47125 151.93695 
L 257.92875 151.93695 
Q 263.92875 151.93695 263.92875 145.93695 
L 263.92875 134.22945 
Q 263.92875 128.22945 257.92875 128.22945 
L 125.47125 128.22945 
Q 119.47125 128.22945 119.47125 134.22945 
L 119.47125 145.93695 
Q 119.47125 151.93695 125.47125 151.93695 
z
" style="fill: #aed6f1; stroke: #000000; stroke-linejoin: miter"/>
    </g>
    <!-- Data Preprocessing -->
    <g transform="translate(125.47125 143.347575) scale(0.12 -0.12)">
     <defs>
      <path id="DejaVuSans-Bold-44" d="M 1791 3756 
L 1791 909 
L 2222 909 
Q 2959 909 3348 1275 
Q 3738 1641 3738 2338 
Q 3738 3031 3350 3393 
Q 2963 3756 2222 3756 
L 1791 3756 
z
M 588 4666 
L 1856 4666 
Q 2919 4666 3439 4514 
Q 3959 4363 4331 4000 
Q 4659 3684 4818 3271 
Q 4978 2859 4978 2338 
Q 4978 1809 4818 1395 
Q 4659 981 4331 666 
Q 3956 303 3431 151 
Q 2906 0 1856 0 
L 588 0 
L 588 4666 
z
" transform="scale(0.015625)"/>
      <path id="DejaVuSans-Bold-61" d="M 2106 1575 
Q 1756 1575 1579 1456 
Q 1403 1338 1403 1106 
Q 1403 894 1545 773 
Q 1688 653 1941 653 
Q 2256 653 2472 879 
Q 2688 1106 2688 1447 
L 2688 1575 
L 2106 1575 
z
M 3816 1997 
L 3816 0 
L 2688 0 
L 2688 519 
Q 2463 200 2181 54 
Q 1900 -91 1497 -91 
Q 953 -91 614 226 
Q 275 544 275 1050 
Q 275 1666 698 1953 
Q 1122 2241 2028 2241 
L 2688 2241 
L 2688 2328 
Q 2688 2594 2478 2717 
Q 2269 2841 1825 2841 
Q 1466 2841 1156 2769 
Q 847 2697 581 2553 
L 581 3406 
Q 941 3494 1303 3539 
Q 1666 3584 2028 3584 
Q 2975 3584 3395 3211 
Q 3816 2838 3816 1997 
z
" transform="scale(0.015625)"/>
      <path id="DejaVuSans-Bold-74" d="M 1759 4494 
L 1759 3500 
L 2913 3500 
L 2913 2700 
L 1759 2700 
L 1759 1216 
Q 1759 972 1856 886 
Q 1953 800 2241 800 
L 2816 800 
L 2816 0 
L 1856 0 
Q 1194 0 917 276 
Q 641 553 641 1216 
L 641 2700 
L 84 2700 
L 84 3500 
L 641 3500 
L 641 4494 
L 1759 4494 
z
" transform="scale(0.015625)"/>
      <path id="DejaVuSans-Bold-20" transform="scale(0.015625)"/>
      <path id="DejaVuSans-Bold-50" d="M 588 4666 
L 2584 4666 
Q 3475 4666 3951 4270 
Q 4428 3875 4428 3144 
Q 4428 2409 3951 2014 
Q 3475 1619 2584 1619 
L 1791 1619 
L 1791 0 
L 588 0 
L 588 4666 
z
M 1791 3794 
L 1791 2491 
L 2456 2491 
Q 2806 2491 2997 2661 
Q 3188 2831 3188 3144 
Q 3188 3456 2997 3625 
Q 2806 3794 2456 3794 
L 1791 3794 
z
" transform="scale(0.015625)"/>
      <path id="DejaVuSans-Bold-72" d="M 3138 2547 
Q 2991 2616 2845 2648 
Q 2700 2681 2553 2681 
Q 2122 2681 1889 2404 
Q 1656 2128 1656 1613 
L 1656 0 
L 538 0 
L 538 3500 
L 1656 3500 
L 1656 2925 
Q 1872 3269 2151 3426 
Q 2431 3584 2822 3584 
Q 2878 3584 2943 3579 
Q 3009 3575 3134 3559 
L 3138 2547 
z
" transform="scale(0.015625)"/>
      <path id="DejaVuSans-Bold-65" d="M 4031 1759 
L 4031 1441 
L 1416 1441 
Q 1456 1047 1700 850 
Q 1944 653 2381 653 
Q 2734 653 3104 758 
Q 3475 863 3866 1075 
L 3866 213 
Q 3469 63 3072 -14 
Q 2675 -91 2278 -91 
Q 1328 -91 801 392 
Q 275 875 275 1747 
Q 275 2603 792 3093 
Q 1309 3584 2216 3584 
Q 3041 3584 3536 3087 
Q 4031 2591 4031 1759 
z
M 2881 2131 
Q 2881 2450 2695 2645 
Q 2509 2841 2209 2841 
Q 1884 2841 1681 2658 
Q 1478 2475 1428 2131 
L 2881 2131 
z
" transform="scale(0.015625)"/>
      <path id="DejaVuSans-Bold-70" d="M 1656 506 
L 1656 -1331 
L 538 -1331 
L 538 3500 
L 1656 3500 
L 1656 2988 
Q 1888 3294 2169 3439 
Q 2450 3584 2816 3584 
Q 3463 3584 3878 3070 
Q 4294 2556 4294 1747 
Q 4294 938 3878 423 
Q 3463 -91 2816 -91 
Q 2450 -91 2169 54 
Q 1888 200 1656 506 
z
M 2400 2772 
Q 2041 2772 1848 2508 
Q 1656 2244 1656 1747 
Q 1656 1250 1848 986 
Q 2041 722 2400 722 
Q 2759 722 2948 984 
Q 3138 1247 3138 1747 
Q 3138 2247 2948 2509 
Q 2759 2772 2400 2772 
z
" transform="scale(0.015625)"/>
      <path id="DejaVuSans-Bold-6f" d="M 2203 2784 
Q 1831 2784 1636 2517 
Q 1441 2250 1441 1747 
Q 1441 1244 1636 976 
Q 1831 709 2203 709 
Q 2569 709 2762 976 
Q 2956 1244 2956 1747 
Q 2956 2250 2762 2517 
Q 2569 2784 2203 2784 
z
M 2203 3584 
Q 3106 3584 3614 3096 
Q 4122 2609 4122 1747 
Q 4122 884 3614 396 
Q 3106 -91 2203 -91 
Q 1297 -91 786 396 
Q 275 884 275 1747 
Q 275 2609 786 3096 
Q 1297 3584 2203 3584 
z
" transform="scale(0.015625)"/>
      <path id="DejaVuSans-Bold-63" d="M 3366 3391 
L 3366 2478 
Q 3138 2634 2908 2709 
Q 2678 2784 2431 2784 
Q 1963 2784 1702 2511 
Q 1441 2238 1441 1747 
Q 1441 1256 1702 982 
Q 1963 709 2431 709 
Q 2694 709 2930 787 
Q 3166 866 3366 1019 
L 3366 103 
Q 3103 6 2833 -42 
Q 2563 -91 2291 -91 
Q 1344 -91 809 395 
Q 275 881 275 1747 
Q 275 2613 809 3098 
Q 1344 3584 2291 3584 
Q 2566 3584 2833 3536 
Q 3100 3488 3366 3391 
z
" transform="scale(0.015625)"/>
      <path id="DejaVuSans-Bold-73" d="M 3272 3391 
L 3272 2541 
Q 2913 2691 2578 2766 
Q 2244 2841 1947 2841 
Q 1628 2841 1473 2761 
Q 1319 2681 1319 2516 
Q 1319 2381 1436 2309 
Q 1553 2238 1856 2203 
L 2053 2175 
Q 2913 2066 3209 1816 
Q 3506 1566 3506 1031 
Q 3506 472 3093 190 
Q 2681 -91 1863 -91 
Q 1516 -91 1145 -36 
Q 775 19 384 128 
L 384 978 
Q 719 816 1070 734 
Q 1422 653 1784 653 
Q 2113 653 2278 743 
Q 2444 834 2444 1013 
Q 2444 1163 2330 1236 
Q 2216 1309 1875 1350 
L 1678 1375 
Q 931 1469 631 1722 
Q 331 1975 331 2491 
Q 331 3047 712 3315 
Q 1094 3584 1881 3584 
Q 2191 3584 2531 3537 
Q 2872 3491 3272 3391 
z
" transform="scale(0.015625)"/>
      <path id="DejaVuSans-Bold-69" d="M 538 3500 
L 1656 3500 
L 1656 0 
L 538 0 
L 538 3500 
z
M 538 4863 
L 1656 4863 
L 1656 3950 
L 538 3950 
L 538 4863 
z
" transform="scale(0.015625)"/>
      <path id="DejaVuSans-Bold-6e" d="M 4056 2131 
L 4056 0 
L 2931 0 
L 2931 347 
L 2931 1631 
Q 2931 2084 2911 2256 
Q 2891 2428 2841 2509 
Q 2775 2619 2662 2680 
Q 2550 2741 2406 2741 
Q 2056 2741 1856 2470 
Q 1656 2200 1656 1722 
L 1656 0 
L 538 0 
L 538 3500 
L 1656 3500 
L 1656 2988 
Q 1909 3294 2193 3439 
Q 2478 3584 2822 3584 
Q 3428 3584 3742 3212 
Q 4056 2841 4056 2131 
z
" transform="scale(0.015625)"/>
      <path id="DejaVuSans-Bold-67" d="M 2919 594 
Q 2688 288 2409 144 
Q 2131 0 1766 0 
Q 1125 0 706 504 
Q 288 1009 288 1791 
Q 288 2575 706 3076 
Q 1125 3578 1766 3578 
Q 2131 3578 2409 3434 
Q 2688 3291 2919 2981 
L 2919 3500 
L 4044 3500 
L 4044 353 
Q 4044 -491 3511 -936 
Q 2978 -1381 1966 -1381 
Q 1638 -1381 1331 -1331 
Q 1025 -1281 716 -1178 
L 716 -306 
Q 1009 -475 1290 -558 
Q 1572 -641 1856 -641 
Q 2406 -641 2662 -400 
Q 2919 -159 2919 353 
L 2919 594 
z
M 2181 2772 
Q 1834 2772 1640 2515 
Q 1447 2259 1447 1791 
Q 1447 1309 1634 1061 
Q 1822 813 2181 813 
Q 2531 813 2725 1069 
Q 2919 1325 2919 1791 
Q 2919 2259 2725 2515 
Q 2531 2772 2181 2772 
z
" transform="scale(0.015625)"/>
     </defs>
     <use xlink:href="#DejaVuSans-Bold-44"/>
     <use xlink:href="#DejaVuSans-Bold-61" x="83.007812"/>
     <use xlink:href="#DejaVuSans-Bold-74" x="150.488281"/>
     <use xlink:href="#DejaVuSans-Bold-61" x="198.291016"/>
     <use xlink:href="#DejaVuSans-Bold-20" x="265.771484"/>
     <use xlink:href="#DejaVuSans-Bold-50" x="300.585938"/>
     <use xlink:href="#DejaVuSans-Bold-72" x="373.876953"/>
     <use xlink:href="#DejaVuSans-Bold-65" x="423.193359"/>
     <use xlink:href="#DejaVuSans-Bold-70" x="491.015625"/>
     <use xlink:href="#DejaVuSans-Bold-72" x="562.597656"/>
     <use xlink:href="#DejaVuSans-Bold-6f" x="611.914062"/>
     <use xlink:href="#DejaVuSans-Bold-63" x="680.615234"/>
     <use xlink:href="#DejaVuSans-Bold-65" x="739.892578"/>
     <use xlink:href="#DejaVuSans-Bold-73" x="807.714844"/>
     <use xlink:href="#DejaVuSans-Bold-73" x="867.236328"/>
     <use xlink:href="#DejaVuSans-Bold-69" x="926.757812"/>
     <use xlink:href="#DejaVuSans-Bold-6e" x="961.035156"/>
     <use xlink:href="#DejaVuSans-Bold-67" x="1032.226562"/>
    </g>
   </g>
   <g id="text_2">
    <!-- - Handle Missing Values -->
    <g transform="translate(132.515625 178.324175) scale(0.1 -0.1)">
     <defs>
      <path id="DejaVuSans-2d" d="M 313 2009 
L 1997 2009 
L 1997 1497 
L 313 1497 
L 313 2009 
z
" transform="scale(0.015625)"/>
      <path id="DejaVuSans-20" transform="scale(0.015625)"/>
      <path id="DejaVuSans-48" d="M 628 4666 
L 1259 4666 
L 1259 2753 
L 3553 2753 
L 3553 4666 
L 4184 4666 
L 4184 0 
L 3553 0 
L 3553 2222 
L 1259 2222 
L 1259 0 
L 628 0 
L 628 4666 
z
" transform="scale(0.015625)"/>
      <path id="DejaVuSans-61" d="M 2194 1759 
Q 1497 1759 1228 1600 
Q 959 1441 959 1056 
Q 959 750 1161 570 
Q 1363 391 1709 391 
Q 2188 391 2477 730 
Q 2766 1069 2766 1631 
L 2766 1759 
L 2194 1759 
z
M 3341 1997 
L 3341 0 
L 2766 0 
L 2766 531 
Q 2569 213 2275 61 
Q 1981 -91 1556 -91 
Q 1019 -91 701 211 
Q 384 513 384 1019 
Q 384 1609 779 1909 
Q 1175 2209 1959 2209 
L 2766 2209 
L 2766 2266 
Q 2766 2663 2505 2880 
Q 2244 3097 1772 3097 
Q 1472 3097 1187 3025 
Q 903 2953 641 2809 
L 641 3341 
Q 956 3463 1253 3523 
Q 1550 3584 1831 3584 
Q 2591 3584 2966 3190 
Q 3341 2797 3341 1997 
z
" transform="scale(0.015625)"/>
      <path id="DejaVuSans-6e" d="M 3513 2113 
L 3513 0 
L 2938 0 
L 2938 2094 
Q 2938 2591 2744 2837 
Q 2550 3084 2163 3084 
Q 1697 3084 1428 2787 
Q 1159 2491 1159 1978 
L 1159 0 
L 581 0 
L 581 3500 
L 1159 3500 
L 1159 2956 
Q 1366 3272 1645 3428 
Q 1925 3584 2291 3584 
Q 2894 3584 3203 3211 
Q 3513 2838 3513 2113 
z
" transform="scale(0.015625)"/>
      <path id="DejaVuSans-64" d="M 2906 2969 
L 2906 4863 
L 3481 4863 
L 3481 0 
L 2906 0 
L 2906 525 
Q 2725 213 2448 61 
Q 2172 -91 1784 -91 
Q 1150 -91 751 415 
Q 353 922 353 1747 
Q 353 2572 751 3078 
Q 1150 3584 1784 3584 
Q 2172 3584 2448 3432 
Q 2725 3281 2906 2969 
z
M 947 1747 
Q 947 1113 1208 752 
Q 1469 391 1925 391 
Q 2381 391 2643 752 
Q 2906 1113 2906 1747 
Q 2906 2381 2643 2742 
Q 2381 3103 1925 3103 
Q 1469 3103 1208 2742 
Q 947 2381 947 1747 
z
" transform="scale(0.015625)"/>
      <path id="DejaVuSans-6c" d="M 603 4863 
L 1178 4863 
L 1178 0 
L 603 0 
L 603 4863 
z
" transform="scale(0.015625)"/>
      <path id="DejaVuSans-65" d="M 3597 1894 
L 3597 1613 
L 953 1613 
Q 991 1019 1311 708 
Q 1631 397 2203 397 
Q 2534 397 2845 478 
Q 3156 559 3463 722 
L 3463 178 
Q 3153 47 2828 -22 
Q 2503 -91 2169 -91 
Q 1331 -91 842 396 
Q 353 884 353 1716 
Q 353 2575 817 3079 
Q 1281 3584 2069 3584 
Q 2775 3584 3186 3129 
Q 3597 2675 3597 1894 
z
M 3022 2063 
Q 3016 2534 2758 2815 
Q 2500 3097 2075 3097 
Q 1594 3097 1305 2825 
Q 1016 2553 972 2059 
L 3022 2063 
z
" transform="scale(0.015625)"/>
      <path id="DejaVuSans-4d" d="M 628 4666 
L 1569 4666 
L 2759 1491 
L 3956 4666 
L 4897 4666 
L 4897 0 
L 4281 0 
L 4281 4097 
L 3078 897 
L 2444 897 
L 1241 4097 
L 1241 0 
L 628 0 
L 628 4666 
z
" transform="scale(0.015625)"/>
      <path id="DejaVuSans-69" d="M 603 3500 
L 1178 3500 
L 1178 0 
L 603 0 
L 603 3500 
z
M 603 4863 
L 1178 4863 
L 1178 4134 
L 603 4134 
L 603 4863 
z
" transform="scale(0.015625)"/>
      <path id="DejaVuSans-73" d="M 2834 3397 
L 2834 2853 
Q 2591 2978 2328 3040 
Q 2066 3103 1784 3103 
Q 1356 3103 1142 2972 
Q 928 2841 928 2578 
Q 928 2378 1081 2264 
Q 1234 2150 1697 2047 
L 1894 2003 
Q 2506 1872 2764 1633 
Q 3022 1394 3022 966 
Q 3022 478 2636 193 
Q 2250 -91 1575 -91 
Q 1294 -91 989 -36 
Q 684 19 347 128 
L 347 722 
Q 666 556 975 473 
Q 1284 391 1588 391 
Q 1994 391 2212 530 
Q 2431 669 2431 922 
Q 2431 1156 2273 1281 
Q 2116 1406 1581 1522 
L 1381 1569 
Q 847 1681 609 1914 
Q 372 2147 372 2553 
Q 372 3047 722 3315 
Q 1072 3584 1716 3584 
Q 2034 3584 2315 3537 
Q 2597 3491 2834 3397 
z
" transform="scale(0.015625)"/>
      <path id="DejaVuSans-67" d="M 2906 1791 
Q 2906 2416 2648 2759 
Q 2391 3103 1925 3103 
Q 1463 3103 1205 2759 
Q 947 2416 947 1791 
Q 947 1169 1205 825 
Q 1463 481 1925 481 
Q 2391 481 2648 825 
Q 2906 1169 2906 1791 
z
M 3481 434 
Q 3481 -459 3084 -895 
Q 2688 -1331 1869 -1331 
Q 1566 -1331 1297 -1286 
Q 1028 -1241 775 -1147 
L 775 -588 
Q 1028 -725 1275 -790 
Q 1522 -856 1778 -856 
Q 2344 -856 2625 -561 
Q 2906 -266 2906 331 
L 2906 616 
Q 2728 306 2450 153 
Q 2172 0 1784 0 
Q 1141 0 747 490 
Q 353 981 353 1791 
Q 353 2603 747 3093 
Q 1141 3584 1784 3584 
Q 2172 3584 2450 3431 
Q 2728 3278 2906 2969 
L 2906 3500 
L 3481 3500 
L 3481 434 
z
" transform="scale(0.015625)"/>
      <path id="DejaVuSans-56" d="M 1831 0 
L 50 4666 
L 709 4666 
L 2188 738 
L 3669 4666 
L 4325 4666 
L 2547 0 
L 1831 0 
z
" transform="scale(0.015625)"/>
      <path id="DejaVuSans-75" d="M 544 1381 
L 544 3500 
L 1119 3500 
L 1119 1403 
Q 1119 906 1312 657 
Q 1506 409 1894 409 
Q 2359 409 2629 706 
Q 2900 1003 2900 1516 
L 2900 3500 
L 3475 3500 
L 3475 0 
L 2900 0 
L 2900 538 
Q 2691 219 2414 64 
Q 2138 -91 1772 -91 
Q 1169 -91 856 284 
Q 544 659 544 1381 
z
M 1991 3584 
L 1991 3584 
z
" transform="scale(0.015625)"/>
     </defs>
     <use xlink:href="#DejaVuSans-2d"/>
     <use xlink:href="#DejaVuSans-20" x="36.083984"/>
     <use xlink:href="#DejaVuSans-48" x="67.871094"/>
     <use xlink:href="#DejaVuSans-61" x="143.066406"/>
     <use xlink:href="#DejaVuSans-6e" x="204.345703"/>
     <use xlink:href="#DejaVuSans-64" x="267.724609"/>
     <use xlink:href="#DejaVuSans-6c" x="331.201172"/>
     <use xlink:href="#DejaVuSans-65" x="358.984375"/>
     <use xlink:href="#DejaVuSans-20" x="420.507812"/>
     <use xlink:href="#DejaVuSans-4d" x="452.294922"/>
     <use xlink:href="#DejaVuSans-69" x="538.574219"/>
     <use xlink:href="#DejaVuSans-73" x="566.357422"/>
     <use xlink:href="#DejaVuSans-73" x="618.457031"/>
     <use xlink:href="#DejaVuSans-69" x="670.556641"/>
     <use xlink:href="#DejaVuSans-6e" x="698.339844"/>
     <use xlink:href="#DejaVuSans-67" x="761.71875"/>
     <use xlink:href="#DejaVuSans-20" x="825.195312"/>
     <use xlink:href="#DejaVuSans-56" x="856.982422"/>
     <use xlink:href="#DejaVuSans-61" x="917.640625"/>
     <use xlink:href="#DejaVuSans-6c" x="978.919922"/>
     <use xlink:href="#DejaVuSans-75" x="1006.703125"/>
     <use xlink:href="#DejaVuSans-65" x="1070.082031"/>
     <use xlink:href="#DejaVuSans-73" x="1131.605469"/>
    </g>
   </g>
   <g id="text_3">
    <!-- - Encode Categorical Variables -->
    <g transform="translate(115.41875 196.064975) scale(0.1 -0.1)">
     <defs>
      <path id="DejaVuSans-45" d="M 628 4666 
L 3578 4666 
L 3578 4134 
L 1259 4134 
L 1259 2753 
L 3481 2753 
L 3481 2222 
L 1259 2222 
L 1259 531 
L 3634 531 
L 3634 0 
L 628 0 
L 628 4666 
z
" transform="scale(0.015625)"/>
      <path id="DejaVuSans-63" d="M 3122 3366 
L 3122 2828 
Q 2878 2963 2633 3030 
Q 2388 3097 2138 3097 
Q 1578 3097 1268 2742 
Q 959 2388 959 1747 
Q 959 1106 1268 751 
Q 1578 397 2138 397 
Q 2388 397 2633 464 
Q 2878 531 3122 666 
L 3122 134 
Q 2881 22 2623 -34 
Q 2366 -91 2075 -91 
Q 1284 -91 818 406 
Q 353 903 353 1747 
Q 353 2603 823 3093 
Q 1294 3584 2113 3584 
Q 2378 3584 2631 3529 
Q 2884 3475 3122 3366 
z
" transform="scale(0.015625)"/>
      <path id="DejaVuSans-6f" d="M 1959 3097 
Q 1497 3097 1228 2736 
Q 959 2375 959 1747 
Q 959 1119 1226 758 
Q 1494 397 1959 397 
Q 2419 397 2687 759 
Q 2956 1122 2956 1747 
Q 2956 2369 2687 2733 
Q 2419 3097 1959 3097 
z
M 1959 3584 
Q 2709 3584 3137 3096 
Q 3566 2609 3566 1747 
Q 3566 888 3137 398 
Q 2709 -91 1959 -91 
Q 1206 -91 779 398 
Q 353 888 353 1747 
Q 353 2609 779 3096 
Q 1206 3584 1959 3584 
z
" transform="scale(0.015625)"/>
      <path id="DejaVuSans-43" d="M 4122 4306 
L 4122 3641 
Q 3803 3938 3442 4084 
Q 3081 4231 2675 4231 
Q 1875 4231 1450 3742 
Q 1025 3253 1025 2328 
Q 1025 1406 1450 917 
Q 1875 428 2675 428 
Q 3081 428 3442 575 
Q 3803 722 4122 1019 
L 4122 359 
Q 3791 134 3420 21 
Q 3050 -91 2638 -91 
Q 1578 -91 968 557 
Q 359 1206 359 2328 
Q 359 3453 968 4101 
Q 1578 4750 2638 4750 
Q 3056 4750 3426 4639 
Q 3797 4528 4122 4306 
z
" transform="scale(0.015625)"/>
      <path id="DejaVuSans-74" d="M 1172 4494 
L 1172 3500 
L 2356 3500 
L 2356 3053 
L 1172 3053 
L 1172 1153 
Q 1172 725 1289 603 
Q 1406 481 1766 481 
L 2356 481 
L 2356 0 
L 1766 0 
Q 1100 0 847 248 
Q 594 497 594 1153 
L 594 3053 
L 172 3053 
L 172 3500 
L 594 3500 
L 594 4494 
L 1172 4494 
z
" transform="scale(0.015625)"/>
      <path id="DejaVuSans-72" d="M 2631 2963 
Q 2534 3019 2420 3045 
Q 2306 3072 2169 3072 
Q 1681 3072 1420 2755 
Q 1159 2438 1159 1844 
L 1159 0 
L 581 0 
L 581 3500 
L 1159 3500 
L 1159 2956 
Q 1341 3275 1631 3429 
Q 1922 3584 2338 3584 
Q 2397 3584 2469 3576 
Q 2541 3569 2628 3553 
L 2631 2963 
z
" transform="scale(0.015625)"/>
      <path id="DejaVuSans-62" d="M 3116 1747 
Q 3116 2381 2855 2742 
Q 2594 3103 2138 3103 
Q 1681 3103 1420 2742 
Q 1159 2381 1159 1747 
Q 1159 1113 1420 752 
Q 1681 391 2138 391 
Q 2594 391 2855 752 
Q 3116 1113 3116 1747 
z
M 1159 2969 
Q 1341 3281 1617 3432 
Q 1894 3584 2278 3584 
Q 2916 3584 3314 3078 
Q 3713 2572 3713 1747 
Q 3713 922 3314 415 
Q 2916 -91 2278 -91 
Q 1894 -91 1617 61 
Q 1341 213 1159 525 
L 1159 0 
L 581 0 
L 581 4863 
L 1159 4863 
L 1159 2969 
z
" transform="scale(0.015625)"/>
     </defs>
     <use xlink:href="#DejaVuSans-2d"/>
     <use xlink:href="#DejaVuSans-20" x="36.083984"/>
     <use xlink:href="#DejaVuSans-45" x="67.871094"/>
     <use xlink:href="#DejaVuSans-6e" x="131.054688"/>
     <use xlink:href="#DejaVuSans-63" x="194.433594"/>
     <use xlink:href="#DejaVuSans-6f" x="249.414062"/>
     <use xlink:href="#DejaVuSans-64" x="310.595703"/>
     <use xlink:href="#DejaVuSans-65" x="374.072266"/>
     <use xlink:href="#DejaVuSans-20" x="435.595703"/>
     <use xlink:href="#DejaVuSans-43" x="467.382812"/>
     <use xlink:href="#DejaVuSans-61" x="537.207031"/>
     <use xlink:href="#DejaVuSans-74" x="598.486328"/>
     <use xlink:href="#DejaVuSans-65" x="637.695312"/>
     <use xlink:href="#DejaVuSans-67" x="699.21875"/>
     <use xlink:href="#DejaVuSans-6f" x="762.695312"/>
     <use xlink:href="#DejaVuSans-72" x="823.876953"/>
     <use xlink:href="#DejaVuSans-69" x="864.990234"/>
     <use xlink:href="#DejaVuSans-63" x="892.773438"/>
     <use xlink:href="#DejaVuSans-61" x="947.753906"/>
     <use xlink:href="#DejaVuSans-6c" x="1009.033203"/>
     <use xlink:href="#DejaVuSans-20" x="1036.816406"/>
     <use xlink:href="#DejaVuSans-56" x="1068.603516"/>
     <use xlink:href="#DejaVuSans-61" x="1129.261719"/>
     <use xlink:href="#DejaVuSans-72" x="1190.541016"/>
     <use xlink:href="#DejaVuSans-69" x="1231.654297"/>
     <use xlink:href="#DejaVuSans-61" x="1259.4375"/>
     <use xlink:href="#DejaVuSans-62" x="1320.716797"/>
     <use xlink:href="#DejaVuSans-6c" x="1384.193359"/>
     <use xlink:href="#DejaVuSans-65" x="1411.976562"/>
     <use xlink:href="#DejaVuSans-73" x="1473.5"/>
    </g>
   </g>
   <g id="text_4">
    <!-- - Normalize Numerical Features -->
    <g transform="translate(112.95 213.805775) scale(0.1 -0.1)">
     <defs>
      <path id="DejaVuSans-4e" d="M 628 4666 
L 1478 4666 
L 3547 763 
L 3547 4666 
L 4159 4666 
L 4159 0 
L 3309 0 
L 1241 3903 
L 1241 0 
L 628 0 
L 628 4666 
z
" transform="scale(0.015625)"/>
      <path id="DejaVuSans-6d" d="M 3328 2828 
Q 3544 3216 3844 3400 
Q 4144 3584 4550 3584 
Q 5097 3584 5394 3201 
Q 5691 2819 5691 2113 
L 5691 0 
L 5113 0 
L 5113 2094 
Q 5113 2597 4934 2840 
Q 4756 3084 4391 3084 
Q 3944 3084 3684 2787 
Q 3425 2491 3425 1978 
L 3425 0 
L 2847 0 
L 2847 2094 
Q 2847 2600 2669 2842 
Q 2491 3084 2119 3084 
Q 1678 3084 1418 2786 
Q 1159 2488 1159 1978 
L 1159 0 
L 581 0 
L 581 3500 
L 1159 3500 
L 1159 2956 
Q 1356 3278 1631 3431 
Q 1906 3584 2284 3584 
Q 2666 3584 2933 3390 
Q 3200 3197 3328 2828 
z
" transform="scale(0.015625)"/>
      <path id="DejaVuSans-7a" d="M 353 3500 
L 3084 3500 
L 3084 2975 
L 922 459 
L 3084 459 
L 3084 0 
L 275 0 
L 275 525 
L 2438 3041 
L 353 3041 
L 353 3500 
z
" transform="scale(0.015625)"/>
      <path id="DejaVuSans-46" d="M 628 4666 
L 3309 4666 
L 3309 4134 
L 1259 4134 
L 1259 2759 
L 3109 2759 
L 3109 2228 
L 1259 2228 
L 1259 0 
L 628 0 
L 628 4666 
z
" transform="scale(0.015625)"/>
     </defs>
     <use xlink:href="#DejaVuSans-2d"/>
     <use xlink:href="#DejaVuSans-20" x="36.083984"/>
     <use xlink:href="#DejaVuSans-4e" x="67.871094"/>
     <use xlink:href="#DejaVuSans-6f" x="142.675781"/>
     <use xlink:href="#DejaVuSans-72" x="203.857422"/>
     <use xlink:href="#DejaVuSans-6d" x="243.220703"/>
     <use xlink:href="#DejaVuSans-61" x="340.632812"/>
     <use xlink:href="#DejaVuSans-6c" x="401.912109"/>
     <use xlink:href="#DejaVuSans-69" x="429.695312"/>
     <use xlink:href="#DejaVuSans-7a" x="457.478516"/>
     <use xlink:href="#DejaVuSans-65" x="509.96875"/>
     <use xlink:href="#DejaVuSans-20" x="571.492188"/>
     <use xlink:href="#DejaVuSans-4e" x="603.279297"/>
     <use xlink:href="#DejaVuSans-75" x="678.083984"/>
     <use xlink:href="#DejaVuSans-6d" x="741.462891"/>
     <use xlink:href="#DejaVuSans-65" x="838.875"/>
     <use xlink:href="#DejaVuSans-72" x="900.398438"/>
     <use xlink:href="#DejaVuSans-69" x="941.511719"/>
     <use xlink:href="#DejaVuSans-63" x="969.294922"/>
     <use xlink:href="#DejaVuSans-61" x="1024.275391"/>
     <use xlink:href="#DejaVuSans-6c" x="1085.554688"/>
     <use xlink:href="#DejaVuSans-20" x="1113.337891"/>
     <use xlink:href="#DejaVuSans-46" x="1145.125"/>
     <use xlink:href="#DejaVuSans-65" x="1197.144531"/>
     <use xlink:href="#DejaVuSans-61" x="1258.667969"/>
     <use xlink:href="#DejaVuSans-74" x="1319.947266"/>
     <use xlink:href="#DejaVuSans-75" x="1359.15625"/>
     <use xlink:href="#DejaVuSans-72" x="1422.535156"/>
     <use xlink:href="#DejaVuSans-65" x="1461.398438"/>
     <use xlink:href="#DejaVuSans-73" x="1522.921875"/>
    </g>
   </g>
   <g id="text_5">
    <g id="patch_3">
     <path d="M 132.074062 240.594075 
L 251.325937 240.594075 
Q 257.325938 240.594075 257.325938 234.594075 
L 257.325938 222.980325 
Q 257.325938 216.980325 251.325937 216.980325 
L 132.074062 216.980325 
Q 126.074062 216.980325 126.074062 222.980325 
L 126.074062 234.594075 
Q 126.074062 240.594075 132.074062 240.594075 
z
" style="fill: #aed6f1; stroke: #000000; stroke-linejoin: miter"/>
    </g>
    <!-- Feature Selection -->
    <g transform="translate(132.074062 232.09845) scale(0.12 -0.12)">
     <defs>
      <path id="DejaVuSans-Bold-46" d="M 588 4666 
L 3834 4666 
L 3834 3756 
L 1791 3756 
L 1791 2888 
L 3713 2888 
L 3713 1978 
L 1791 1978 
L 1791 0 
L 588 0 
L 588 4666 
z
" transform="scale(0.015625)"/>
      <path id="DejaVuSans-Bold-75" d="M 500 1363 
L 500 3500 
L 1625 3500 
L 1625 3150 
Q 1625 2866 1622 2436 
Q 1619 2006 1619 1863 
Q 1619 1441 1641 1255 
Q 1663 1069 1716 984 
Q 1784 875 1895 815 
Q 2006 756 2150 756 
Q 2500 756 2700 1025 
Q 2900 1294 2900 1772 
L 2900 3500 
L 4019 3500 
L 4019 0 
L 2900 0 
L 2900 506 
Q 2647 200 2364 54 
Q 2081 -91 1741 -91 
Q 1134 -91 817 281 
Q 500 653 500 1363 
z
" transform="scale(0.015625)"/>
      <path id="DejaVuSans-Bold-53" d="M 3834 4519 
L 3834 3531 
Q 3450 3703 3084 3790 
Q 2719 3878 2394 3878 
Q 1963 3878 1756 3759 
Q 1550 3641 1550 3391 
Q 1550 3203 1689 3098 
Q 1828 2994 2194 2919 
L 2706 2816 
Q 3484 2659 3812 2340 
Q 4141 2022 4141 1434 
Q 4141 663 3683 286 
Q 3225 -91 2284 -91 
Q 1841 -91 1394 -6 
Q 947 78 500 244 
L 500 1259 
Q 947 1022 1364 901 
Q 1781 781 2169 781 
Q 2563 781 2772 912 
Q 2981 1044 2981 1288 
Q 2981 1506 2839 1625 
Q 2697 1744 2272 1838 
L 1806 1941 
Q 1106 2091 782 2419 
Q 459 2747 459 3303 
Q 459 4000 909 4375 
Q 1359 4750 2203 4750 
Q 2588 4750 2994 4692 
Q 3400 4634 3834 4519 
z
" transform="scale(0.015625)"/>
      <path id="DejaVuSans-Bold-6c" d="M 538 4863 
L 1656 4863 
L 1656 0 
L 538 0 
L 538 4863 
z
" transform="scale(0.015625)"/>
     </defs>
     <use xlink:href="#DejaVuSans-Bold-46"/>
     <use xlink:href="#DejaVuSans-Bold-65" x="64.310547"/>
     <use xlink:href="#DejaVuSans-Bold-61" x="132.132812"/>
     <use xlink:href="#DejaVuSans-Bold-74" x="199.613281"/>
     <use xlink:href="#DejaVuSans-Bold-75" x="247.416016"/>
     <use xlink:href="#DejaVuSans-Bold-72" x="318.607422"/>
     <use xlink:href="#DejaVuSans-Bold-65" x="367.923828"/>
     <use xlink:href="#DejaVuSans-Bold-20" x="435.746094"/>
     <use xlink:href="#DejaVuSans-Bold-53" x="470.560547"/>
     <use xlink:href="#DejaVuSans-Bold-65" x="542.582031"/>
     <use xlink:href="#DejaVuSans-Bold-6c" x="610.404297"/>
     <use xlink:href="#DejaVuSans-Bold-65" x="644.681641"/>
     <use xlink:href="#DejaVuSans-Bold-63" x="712.503906"/>
     <use xlink:href="#DejaVuSans-Bold-74" x="771.78125"/>
     <use xlink:href="#DejaVuSans-Bold-69" x="819.583984"/>
     <use xlink:href="#DejaVuSans-Bold-6f" x="853.861328"/>
     <use xlink:href="#DejaVuSans-Bold-6e" x="922.5625"/>
    </g>
   </g>
   <g id="text_6">
    <!-- - Domain Knowledge -->
    <g transform="translate(139.829687 267.028175) scale(0.1 -0.1)">
     <defs>
      <path id="DejaVuSans-44" d="M 1259 4147 
L 1259 519 
L 2022 519 
Q 2988 519 3436 956 
Q 3884 1394 3884 2338 
Q 3884 3275 3436 3711 
Q 2988 4147 2022 4147 
L 1259 4147 
z
M 628 4666 
L 1925 4666 
Q 3281 4666 3915 4102 
Q 4550 3538 4550 2338 
Q 4550 1131 3912 565 
Q 3275 0 1925 0 
L 628 0 
L 628 4666 
z
" transform="scale(0.015625)"/>
      <path id="DejaVuSans-4b" d="M 628 4666 
L 1259 4666 
L 1259 2694 
L 3353 4666 
L 4166 4666 
L 1850 2491 
L 4331 0 
L 3500 0 
L 1259 2247 
L 1259 0 
L 628 0 
L 628 4666 
z
" transform="scale(0.015625)"/>
      <path id="DejaVuSans-77" d="M 269 3500 
L 844 3500 
L 1563 769 
L 2278 3500 
L 2956 3500 
L 3675 769 
L 4391 3500 
L 4966 3500 
L 4050 0 
L 3372 0 
L 2619 2869 
L 1863 0 
L 1184 0 
L 269 3500 
z
" transform="scale(0.015625)"/>
     </defs>
     <use xlink:href="#DejaVuSans-2d"/>
     <use xlink:href="#DejaVuSans-20" x="36.083984"/>
     <use xlink:href="#DejaVuSans-44" x="67.871094"/>
     <use xlink:href="#DejaVuSans-6f" x="144.873047"/>
     <use xlink:href="#DejaVuSans-6d" x="206.054688"/>
     <use xlink:href="#DejaVuSans-61" x="303.466797"/>
     <use xlink:href="#DejaVuSans-69" x="364.746094"/>
     <use xlink:href="#DejaVuSans-6e" x="392.529297"/>
     <use xlink:href="#DejaVuSans-20" x="455.908203"/>
     <use xlink:href="#DejaVuSans-4b" x="487.695312"/>
     <use xlink:href="#DejaVuSans-6e" x="553.271484"/>
     <use xlink:href="#DejaVuSans-6f" x="616.650391"/>
     <use xlink:href="#DejaVuSans-77" x="677.832031"/>
     <use xlink:href="#DejaVuSans-6c" x="759.619141"/>
     <use xlink:href="#DejaVuSans-65" x="787.402344"/>
     <use xlink:href="#DejaVuSans-64" x="848.925781"/>
     <use xlink:href="#DejaVuSans-67" x="912.402344"/>
     <use xlink:href="#DejaVuSans-65" x="975.878906"/>
    </g>
   </g>
   <g id="text_7">
    <!-- - Correlation Analysis -->
    <g transform="translate(138.549219 284.768975) scale(0.1 -0.1)">
     <defs>
      <path id="DejaVuSans-41" d="M 2188 4044 
L 1331 1722 
L 3047 1722 
L 2188 4044 
z
M 1831 4666 
L 2547 4666 
L 4325 0 
L 3669 0 
L 3244 1197 
L 1141 1197 
L 716 0 
L 50 0 
L 1831 4666 
z
" transform="scale(0.015625)"/>
      <path id="DejaVuSans-79" d="M 2059 -325 
Q 1816 -950 1584 -1140 
Q 1353 -1331 966 -1331 
L 506 -1331 
L 506 -850 
L 844 -850 
Q 1081 -850 1212 -737 
Q 1344 -625 1503 -206 
L 1606 56 
L 191 3500 
L 800 3500 
L 1894 763 
L 2988 3500 
L 3597 3500 
L 2059 -325 
z
" transform="scale(0.015625)"/>
     </defs>
     <use xlink:href="#DejaVuSans-2d"/>
     <use xlink:href="#DejaVuSans-20" x="36.083984"/>
     <use xlink:href="#DejaVuSans-43" x="67.871094"/>
     <use xlink:href="#DejaVuSans-6f" x="137.695312"/>
     <use xlink:href="#DejaVuSans-72" x="198.876953"/>
     <use xlink:href="#DejaVuSans-72" x="238.240234"/>
     <use xlink:href="#DejaVuSans-65" x="277.103516"/>
     <use xlink:href="#DejaVuSans-6c" x="338.626953"/>
     <use xlink:href="#DejaVuSans-61" x="366.410156"/>
     <use xlink:href="#DejaVuSans-74" x="427.689453"/>
     <use xlink:href="#DejaVuSans-69" x="466.898438"/>
     <use xlink:href="#DejaVuSans-6f" x="494.681641"/>
     <use xlink:href="#DejaVuSans-6e" x="555.863281"/>
     <use xlink:href="#DejaVuSans-20" x="619.242188"/>
     <use xlink:href="#DejaVuSans-41" x="651.029297"/>
     <use xlink:href="#DejaVuSans-6e" x="719.4375"/>
     <use xlink:href="#DejaVuSans-61" x="782.816406"/>
     <use xlink:href="#DejaVuSans-6c" x="844.095703"/>
     <use xlink:href="#DejaVuSans-79" x="871.878906"/>
     <use xlink:href="#DejaVuSans-73" x="931.058594"/>
     <use xlink:href="#DejaVuSans-69" x="983.158203"/>
     <use xlink:href="#DejaVuSans-73" x="1010.941406"/>
    </g>
   </g>
   <g id="text_8">
    <!-- - Feature Importance -->
    <g transform="translate(139.175 302.509775) scale(0.1 -0.1)">
     <defs>
      <path id="DejaVuSans-49" d="M 628 4666 
L 1259 4666 
L 1259 0 
L 628 0 
L 628 4666 
z
" transform="scale(0.015625)"/>
      <path id="DejaVuSans-70" d="M 1159 525 
L 1159 -1331 
L 581 -1331 
L 581 3500 
L 1159 3500 
L 1159 2969 
Q 1341 3281 1617 3432 
Q 1894 3584 2278 3584 
Q 2916 3584 3314 3078 
Q 3713 2572 3713 1747 
Q 3713 922 3314 415 
Q 2916 -91 2278 -91 
Q 1894 -91 1617 61 
Q 1341 213 1159 525 
z
M 3116 1747 
Q 3116 2381 2855 2742 
Q 2594 3103 2138 3103 
Q 1681 3103 1420 2742 
Q 1159 2381 1159 1747 
Q 1159 1113 1420 752 
Q 1681 391 2138 391 
Q 2594 391 2855 752 
Q 3116 1113 3116 1747 
z
" transform="scale(0.015625)"/>
     </defs>
     <use xlink:href="#DejaVuSans-2d"/>
     <use xlink:href="#DejaVuSans-20" x="36.083984"/>
     <use xlink:href="#DejaVuSans-46" x="67.871094"/>
     <use xlink:href="#DejaVuSans-65" x="119.890625"/>
     <use xlink:href="#DejaVuSans-61" x="181.414062"/>
     <use xlink:href="#DejaVuSans-74" x="242.693359"/>
     <use xlink:href="#DejaVuSans-75" x="281.902344"/>
     <use xlink:href="#DejaVuSans-72" x="345.28125"/>
     <use xlink:href="#DejaVuSans-65" x="384.144531"/>
     <use xlink:href="#DejaVuSans-20" x="445.667969"/>
     <use xlink:href="#DejaVuSans-49" x="477.455078"/>
     <use xlink:href="#DejaVuSans-6d" x="506.947266"/>
     <use xlink:href="#DejaVuSans-70" x="604.359375"/>
     <use xlink:href="#DejaVuSans-6f" x="667.835938"/>
     <use xlink:href="#DejaVuSans-72" x="729.017578"/>
     <use xlink:href="#DejaVuSans-74" x="770.130859"/>
     <use xlink:href="#DejaVuSans-61" x="809.339844"/>
     <use xlink:href="#DejaVuSans-6e" x="870.619141"/>
     <use xlink:href="#DejaVuSans-63" x="933.998047"/>
     <use xlink:href="#DejaVuSans-65" x="988.978516"/>
    </g>
   </g>
   <g id="text_9">
    <g id="patch_4">
     <path d="M 141.705 329.34495 
L 241.695 329.34495 
Q 247.695 329.34495 247.695 323.34495 
L 247.695 311.63745 
Q 247.695 305.63745 241.695 305.63745 
L 141.705 305.63745 
Q 135.705 305.63745 135.705 311.63745 
L 135.705 323.34495 
Q 135.705 329.34495 141.705 329.34495 
z
" style="fill: #aed6f1; stroke: #000000; stroke-linejoin: miter"/>
    </g>
    <!-- Model Training -->
    <g transform="translate(141.705 320.755575) scale(0.12 -0.12)">
     <defs>
      <path id="DejaVuSans-Bold-4d" d="M 588 4666 
L 2119 4666 
L 3181 2169 
L 4250 4666 
L 5778 4666 
L 5778 0 
L 4641 0 
L 4641 3413 
L 3566 897 
L 2803 897 
L 1728 3413 
L 1728 0 
L 588 0 
L 588 4666 
z
" transform="scale(0.015625)"/>
      <path id="DejaVuSans-Bold-64" d="M 2919 2988 
L 2919 4863 
L 4044 4863 
L 4044 0 
L 2919 0 
L 2919 506 
Q 2688 197 2409 53 
Q 2131 -91 1766 -91 
Q 1119 -91 703 423 
Q 288 938 288 1747 
Q 288 2556 703 3070 
Q 1119 3584 1766 3584 
Q 2128 3584 2408 3439 
Q 2688 3294 2919 2988 
z
M 2181 722 
Q 2541 722 2730 984 
Q 2919 1247 2919 1747 
Q 2919 2247 2730 2509 
Q 2541 2772 2181 2772 
Q 1825 2772 1636 2509 
Q 1447 2247 1447 1747 
Q 1447 1247 1636 984 
Q 1825 722 2181 722 
z
" transform="scale(0.015625)"/>
      <path id="DejaVuSans-Bold-54" d="M 31 4666 
L 4331 4666 
L 4331 3756 
L 2784 3756 
L 2784 0 
L 1581 0 
L 1581 3756 
L 31 3756 
L 31 4666 
z
" transform="scale(0.015625)"/>
     </defs>
     <use xlink:href="#DejaVuSans-Bold-4d"/>
     <use xlink:href="#DejaVuSans-Bold-6f" x="99.511719"/>
     <use xlink:href="#DejaVuSans-Bold-64" x="168.212891"/>
     <use xlink:href="#DejaVuSans-Bold-65" x="239.794922"/>
     <use xlink:href="#DejaVuSans-Bold-6c" x="307.617188"/>
     <use xlink:href="#DejaVuSans-Bold-20" x="341.894531"/>
     <use xlink:href="#DejaVuSans-Bold-54" x="376.708984"/>
     <use xlink:href="#DejaVuSans-Bold-72" x="433.921875"/>
     <use xlink:href="#DejaVuSans-Bold-61" x="483.238281"/>
     <use xlink:href="#DejaVuSans-Bold-69" x="550.71875"/>
     <use xlink:href="#DejaVuSans-Bold-6e" x="584.996094"/>
     <use xlink:href="#DejaVuSans-Bold-69" x="656.1875"/>
     <use xlink:href="#DejaVuSans-Bold-6e" x="690.464844"/>
     <use xlink:href="#DejaVuSans-Bold-67" x="761.65625"/>
    </g>
   </g>
   <g id="text_10">
    <!-- - Logistic Regression -->
    <g transform="translate(140.347656 355.732175) scale(0.1 -0.1)">
     <defs>
      <path id="DejaVuSans-4c" d="M 628 4666 
L 1259 4666 
L 1259 531 
L 3531 531 
L 3531 0 
L 628 0 
L 628 4666 
z
" transform="scale(0.015625)"/>
      <path id="DejaVuSans-52" d="M 2841 2188 
Q 3044 2119 3236 1894 
Q 3428 1669 3622 1275 
L 4263 0 
L 3584 0 
L 2988 1197 
Q 2756 1666 2539 1819 
Q 2322 1972 1947 1972 
L 1259 1972 
L 1259 0 
L 628 0 
L 628 4666 
L 2053 4666 
Q 2853 4666 3247 4331 
Q 3641 3997 3641 3322 
Q 3641 2881 3436 2590 
Q 3231 2300 2841 2188 
z
M 1259 4147 
L 1259 2491 
L 2053 2491 
Q 2509 2491 2742 2702 
Q 2975 2913 2975 3322 
Q 2975 3731 2742 3939 
Q 2509 4147 2053 4147 
L 1259 4147 
z
" transform="scale(0.015625)"/>
     </defs>
     <use xlink:href="#DejaVuSans-2d"/>
     <use xlink:href="#DejaVuSans-20" x="36.083984"/>
     <use xlink:href="#DejaVuSans-4c" x="67.871094"/>
     <use xlink:href="#DejaVuSans-6f" x="121.833984"/>
     <use xlink:href="#DejaVuSans-67" x="183.015625"/>
     <use xlink:href="#DejaVuSans-69" x="246.492188"/>
     <use xlink:href="#DejaVuSans-73" x="274.275391"/>
     <use xlink:href="#DejaVuSans-74" x="326.375"/>
     <use xlink:href="#DejaVuSans-69" x="365.583984"/>
     <use xlink:href="#DejaVuSans-63" x="393.367188"/>
     <use xlink:href="#DejaVuSans-20" x="448.347656"/>
     <use xlink:href="#DejaVuSans-52" x="480.134766"/>
     <use xlink:href="#DejaVuSans-65" x="545.117188"/>
     <use xlink:href="#DejaVuSans-67" x="606.640625"/>
     <use xlink:href="#DejaVuSans-72" x="670.117188"/>
     <use xlink:href="#DejaVuSans-65" x="708.980469"/>
     <use xlink:href="#DejaVuSans-73" x="770.503906"/>
     <use xlink:href="#DejaVuSans-73" x="822.603516"/>
     <use xlink:href="#DejaVuSans-69" x="874.703125"/>
     <use xlink:href="#DejaVuSans-6f" x="902.486328"/>
     <use xlink:href="#DejaVuSans-6e" x="963.667969"/>
    </g>
   </g>
   <g id="text_11">
    <!-- - XGBoost -->
    <g transform="translate(166.89375 373.472975) scale(0.1 -0.1)">
     <defs>
      <path id="DejaVuSans-58" d="M 403 4666 
L 1081 4666 
L 2241 2931 
L 3406 4666 
L 4084 4666 
L 2584 2425 
L 4184 0 
L 3506 0 
L 2194 1984 
L 872 0 
L 191 0 
L 1856 2491 
L 403 4666 
z
" transform="scale(0.015625)"/>
      <path id="DejaVuSans-47" d="M 3809 666 
L 3809 1919 
L 2778 1919 
L 2778 2438 
L 4434 2438 
L 4434 434 
Q 4069 175 3628 42 
Q 3188 -91 2688 -91 
Q 1594 -91 976 548 
Q 359 1188 359 2328 
Q 359 3472 976 4111 
Q 1594 4750 2688 4750 
Q 3144 4750 3555 4637 
Q 3966 4525 4313 4306 
L 4313 3634 
Q 3963 3931 3569 4081 
Q 3175 4231 2741 4231 
Q 1884 4231 1454 3753 
Q 1025 3275 1025 2328 
Q 1025 1384 1454 906 
Q 1884 428 2741 428 
Q 3075 428 3337 486 
Q 3600 544 3809 666 
z
" transform="scale(0.015625)"/>
      <path id="DejaVuSans-42" d="M 1259 2228 
L 1259 519 
L 2272 519 
Q 2781 519 3026 730 
Q 3272 941 3272 1375 
Q 3272 1813 3026 2020 
Q 2781 2228 2272 2228 
L 1259 2228 
z
M 1259 4147 
L 1259 2741 
L 2194 2741 
Q 2656 2741 2882 2914 
Q 3109 3088 3109 3444 
Q 3109 3797 2882 3972 
Q 2656 4147 2194 4147 
L 1259 4147 
z
M 628 4666 
L 2241 4666 
Q 2963 4666 3353 4366 
Q 3744 4066 3744 3513 
Q 3744 3084 3544 2831 
Q 3344 2578 2956 2516 
Q 3422 2416 3680 2098 
Q 3938 1781 3938 1306 
Q 3938 681 3513 340 
Q 3088 0 2303 0 
L 628 0 
L 628 4666 
z
" transform="scale(0.015625)"/>
     </defs>
     <use xlink:href="#DejaVuSans-2d"/>
     <use xlink:href="#DejaVuSans-20" x="36.083984"/>
     <use xlink:href="#DejaVuSans-58" x="67.871094"/>
     <use xlink:href="#DejaVuSans-47" x="136.376953"/>
     <use xlink:href="#DejaVuSans-42" x="213.867188"/>
     <use xlink:href="#DejaVuSans-6f" x="282.470703"/>
     <use xlink:href="#DejaVuSans-6f" x="343.652344"/>
     <use xlink:href="#DejaVuSans-73" x="404.833984"/>
     <use xlink:href="#DejaVuSans-74" x="456.933594"/>
    </g>
   </g>
   <g id="text_12">
    <!-- - Hyperparameter Tuning -->
    <g transform="translate(128.928125 391.213775) scale(0.1 -0.1)">
     <defs>
      <path id="DejaVuSans-54" d="M -19 4666 
L 3928 4666 
L 3928 4134 
L 2272 4134 
L 2272 0 
L 1638 0 
L 1638 4134 
L -19 4134 
L -19 4666 
z
" transform="scale(0.015625)"/>
     </defs>
     <use xlink:href="#DejaVuSans-2d"/>
     <use xlink:href="#DejaVuSans-20" x="36.083984"/>
     <use xlink:href="#DejaVuSans-48" x="67.871094"/>
     <use xlink:href="#DejaVuSans-79" x="143.066406"/>
     <use xlink:href="#DejaVuSans-70" x="202.246094"/>
     <use xlink:href="#DejaVuSans-65" x="265.722656"/>
     <use xlink:href="#DejaVuSans-72" x="327.246094"/>
     <use xlink:href="#DejaVuSans-70" x="368.359375"/>
     <use xlink:href="#DejaVuSans-61" x="431.835938"/>
     <use xlink:href="#DejaVuSans-72" x="493.115234"/>
     <use xlink:href="#DejaVuSans-61" x="534.228516"/>
     <use xlink:href="#DejaVuSans-6d" x="595.507812"/>
     <use xlink:href="#DejaVuSans-65" x="692.919922"/>
     <use xlink:href="#DejaVuSans-74" x="754.443359"/>
     <use xlink:href="#DejaVuSans-65" x="793.652344"/>
     <use xlink:href="#DejaVuSans-72" x="855.175781"/>
     <use xlink:href="#DejaVuSans-20" x="896.289062"/>
     <use xlink:href="#DejaVuSans-54" x="928.076172"/>
     <use xlink:href="#DejaVuSans-75" x="974.035156"/>
     <use xlink:href="#DejaVuSans-6e" x="1037.414062"/>
     <use xlink:href="#DejaVuSans-69" x="1100.792969"/>
     <use xlink:href="#DejaVuSans-6e" x="1128.576172"/>
     <use xlink:href="#DejaVuSans-67" x="1191.955078"/>
    </g>
   </g>
   <g id="text_13">
    <g id="patch_5">
     <path d="M 133.3425 418.002075 
L 250.0575 418.002075 
Q 256.0575 418.002075 256.0575 412.002075 
L 256.0575 400.388325 
Q 256.0575 394.388325 250.0575 394.388325 
L 133.3425 394.388325 
Q 127.3425 394.388325 127.3425 400.388325 
L 127.3425 412.002075 
Q 127.3425 418.002075 133.3425 418.002075 
z
" style="fill: #aed6f1; stroke: #000000; stroke-linejoin: miter"/>
    </g>
    <!-- Model Evaluation -->
    <g transform="translate(133.3425 409.50645) scale(0.12 -0.12)">
     <defs>
      <path id="DejaVuSans-Bold-45" d="M 588 4666 
L 3834 4666 
L 3834 3756 
L 1791 3756 
L 1791 2888 
L 3713 2888 
L 3713 1978 
L 1791 1978 
L 1791 909 
L 3903 909 
L 3903 0 
L 588 0 
L 588 4666 
z
" transform="scale(0.015625)"/>
      <path id="DejaVuSans-Bold-76" d="M 97 3500 
L 1216 3500 
L 2088 1081 
L 2956 3500 
L 4078 3500 
L 2700 0 
L 1472 0 
L 97 3500 
z
" transform="scale(0.015625)"/>
     </defs>
     <use xlink:href="#DejaVuSans-Bold-4d"/>
     <use xlink:href="#DejaVuSans-Bold-6f" x="99.511719"/>
     <use xlink:href="#DejaVuSans-Bold-64" x="168.212891"/>
     <use xlink:href="#DejaVuSans-Bold-65" x="239.794922"/>
     <use xlink:href="#DejaVuSans-Bold-6c" x="307.617188"/>
     <use xlink:href="#DejaVuSans-Bold-20" x="341.894531"/>
     <use xlink:href="#DejaVuSans-Bold-45" x="376.708984"/>
     <use xlink:href="#DejaVuSans-Bold-76" x="445.019531"/>
     <use xlink:href="#DejaVuSans-Bold-61" x="510.205078"/>
     <use xlink:href="#DejaVuSans-Bold-6c" x="577.685547"/>
     <use xlink:href="#DejaVuSans-Bold-75" x="611.962891"/>
     <use xlink:href="#DejaVuSans-Bold-61" x="683.154297"/>
     <use xlink:href="#DejaVuSans-Bold-74" x="750.634766"/>
     <use xlink:href="#DejaVuSans-Bold-69" x="798.4375"/>
     <use xlink:href="#DejaVuSans-Bold-6f" x="832.714844"/>
     <use xlink:href="#DejaVuSans-Bold-6e" x="901.416016"/>
    </g>
   </g>
   <g id="text_14">
    <!-- - Accuracy -->
    <g transform="translate(165.478906 444.436175) scale(0.1 -0.1)">
     <use xlink:href="#DejaVuSans-2d"/>
     <use xlink:href="#DejaVuSans-20" x="36.083984"/>
     <use xlink:href="#DejaVuSans-41" x="67.871094"/>
     <use xlink:href="#DejaVuSans-63" x="134.529297"/>
     <use xlink:href="#DejaVuSans-63" x="189.509766"/>
     <use xlink:href="#DejaVuSans-75" x="244.490234"/>
     <use xlink:href="#DejaVuSans-72" x="307.869141"/>
     <use xlink:href="#DejaVuSans-61" x="348.982422"/>
     <use xlink:href="#DejaVuSans-63" x="410.261719"/>
     <use xlink:href="#DejaVuSans-79" x="465.242188"/>
    </g>
   </g>
   <g id="text_15">
    <!-- - Precision, Recall, F1-Score -->
    <g transform="translate(122.863281 462.176975) scale(0.1 -0.1)">
     <defs>
      <path id="DejaVuSans-50" d="M 1259 4147 
L 1259 2394 
L 2053 2394 
Q 2494 2394 2734 2622 
Q 2975 2850 2975 3272 
Q 2975 3691 2734 3919 
Q 2494 4147 2053 4147 
L 1259 4147 
z
M 628 4666 
L 2053 4666 
Q 2838 4666 3239 4311 
Q 3641 3956 3641 3272 
Q 3641 2581 3239 2228 
Q 2838 1875 2053 1875 
L 1259 1875 
L 1259 0 
L 628 0 
L 628 4666 
z
" transform="scale(0.015625)"/>
      <path id="DejaVuSans-2c" d="M 750 794 
L 1409 794 
L 1409 256 
L 897 -744 
L 494 -744 
L 750 256 
L 750 794 
z
" transform="scale(0.015625)"/>
      <path id="DejaVuSans-31" d="M 794 531 
L 1825 531 
L 1825 4091 
L 703 3866 
L 703 4441 
L 1819 4666 
L 2450 4666 
L 2450 531 
L 3481 531 
L 3481 0 
L 794 0 
L 794 531 
z
" transform="scale(0.015625)"/>
      <path id="DejaVuSans-53" d="M 3425 4513 
L 3425 3897 
Q 3066 4069 2747 4153 
Q 2428 4238 2131 4238 
Q 1616 4238 1336 4038 
Q 1056 3838 1056 3469 
Q 1056 3159 1242 3001 
Q 1428 2844 1947 2747 
L 2328 2669 
Q 3034 2534 3370 2195 
Q 3706 1856 3706 1288 
Q 3706 609 3251 259 
Q 2797 -91 1919 -91 
Q 1588 -91 1214 -16 
Q 841 59 441 206 
L 441 856 
Q 825 641 1194 531 
Q 1563 422 1919 422 
Q 2459 422 2753 634 
Q 3047 847 3047 1241 
Q 3047 1584 2836 1778 
Q 2625 1972 2144 2069 
L 1759 2144 
Q 1053 2284 737 2584 
Q 422 2884 422 3419 
Q 422 4038 858 4394 
Q 1294 4750 2059 4750 
Q 2388 4750 2728 4690 
Q 3069 4631 3425 4513 
z
" transform="scale(0.015625)"/>
     </defs>
     <use xlink:href="#DejaVuSans-2d"/>
     <use xlink:href="#DejaVuSans-20" x="36.083984"/>
     <use xlink:href="#DejaVuSans-50" x="67.871094"/>
     <use xlink:href="#DejaVuSans-72" x="126.423828"/>
     <use xlink:href="#DejaVuSans-65" x="165.287109"/>
     <use xlink:href="#DejaVuSans-63" x="226.810547"/>
     <use xlink:href="#DejaVuSans-69" x="281.791016"/>
     <use xlink:href="#DejaVuSans-73" x="309.574219"/>
     <use xlink:href="#DejaVuSans-69" x="361.673828"/>
     <use xlink:href="#DejaVuSans-6f" x="389.457031"/>
     <use xlink:href="#DejaVuSans-6e" x="450.638672"/>
     <use xlink:href="#DejaVuSans-2c" x="514.017578"/>
     <use xlink:href="#DejaVuSans-20" x="545.804688"/>
     <use xlink:href="#DejaVuSans-52" x="577.591797"/>
     <use xlink:href="#DejaVuSans-65" x="642.574219"/>
     <use xlink:href="#DejaVuSans-63" x="704.097656"/>
     <use xlink:href="#DejaVuSans-61" x="759.078125"/>
     <use xlink:href="#DejaVuSans-6c" x="820.357422"/>
     <use xlink:href="#DejaVuSans-6c" x="848.140625"/>
     <use xlink:href="#DejaVuSans-2c" x="875.923828"/>
     <use xlink:href="#DejaVuSans-20" x="907.710938"/>
     <use xlink:href="#DejaVuSans-46" x="939.498047"/>
     <use xlink:href="#DejaVuSans-31" x="997.017578"/>
     <use xlink:href="#DejaVuSans-2d" x="1060.640625"/>
     <use xlink:href="#DejaVuSans-53" x="1096.724609"/>
     <use xlink:href="#DejaVuSans-63" x="1160.201172"/>
     <use xlink:href="#DejaVuSans-6f" x="1215.181641"/>
     <use xlink:href="#DejaVuSans-72" x="1276.363281"/>
     <use xlink:href="#DejaVuSans-65" x="1315.226562"/>
    </g>
   </g>
   <g id="text_16">
    <!-- - AUC-ROC -->
    <g transform="translate(165.030469 479.917775) scale(0.1 -0.1)">
     <defs>
      <path id="DejaVuSans-55" d="M 556 4666 
L 1191 4666 
L 1191 1831 
Q 1191 1081 1462 751 
Q 1734 422 2344 422 
Q 2950 422 3222 751 
Q 3494 1081 3494 1831 
L 3494 4666 
L 4128 4666 
L 4128 1753 
Q 4128 841 3676 375 
Q 3225 -91 2344 -91 
Q 1459 -91 1007 375 
Q 556 841 556 1753 
L 556 4666 
z
" transform="scale(0.015625)"/>
      <path id="DejaVuSans-4f" d="M 2522 4238 
Q 1834 4238 1429 3725 
Q 1025 3213 1025 2328 
Q 1025 1447 1429 934 
Q 1834 422 2522 422 
Q 3209 422 3611 934 
Q 4013 1447 4013 2328 
Q 4013 3213 3611 3725 
Q 3209 4238 2522 4238 
z
M 2522 4750 
Q 3503 4750 4090 4092 
Q 4678 3434 4678 2328 
Q 4678 1225 4090 567 
Q 3503 -91 2522 -91 
Q 1538 -91 948 565 
Q 359 1222 359 2328 
Q 359 3434 948 4092 
Q 1538 4750 2522 4750 
z
" transform="scale(0.015625)"/>
     </defs>
     <use xlink:href="#DejaVuSans-2d"/>
     <use xlink:href="#DejaVuSans-20" x="36.083984"/>
     <use xlink:href="#DejaVuSans-41" x="67.871094"/>
     <use xlink:href="#DejaVuSans-55" x="136.279297"/>
     <use xlink:href="#DejaVuSans-43" x="209.472656"/>
     <use xlink:href="#DejaVuSans-2d" x="279.296875"/>
     <use xlink:href="#DejaVuSans-52" x="315.380859"/>
     <use xlink:href="#DejaVuSans-4f" x="384.863281"/>
     <use xlink:href="#DejaVuSans-43" x="463.574219"/>
    </g>
   </g>
   <g id="text_17">
    <g id="patch_6">
     <path d="M 400.139063 151.890075 
L 541.260937 151.890075 
Q 547.260937 151.890075 547.260937 145.890075 
L 547.260937 134.276325 
Q 547.260937 128.276325 541.260937 128.276325 
L 400.139063 128.276325 
Q 394.139063 128.276325 394.139063 134.276325 
L 394.139063 145.890075 
Q 394.139063 151.890075 400.139063 151.890075 
z
" style="fill: #aed6f1; stroke: #000000; stroke-linejoin: miter"/>
    </g>
    <!-- Model Interpretation -->
    <g transform="translate(400.139063 143.39445) scale(0.12 -0.12)">
     <defs>
      <path id="DejaVuSans-Bold-49" d="M 588 4666 
L 1791 4666 
L 1791 0 
L 588 0 
L 588 4666 
z
" transform="scale(0.015625)"/>
     </defs>
     <use xlink:href="#DejaVuSans-Bold-4d"/>
     <use xlink:href="#DejaVuSans-Bold-6f" x="99.511719"/>
     <use xlink:href="#DejaVuSans-Bold-64" x="168.212891"/>
     <use xlink:href="#DejaVuSans-Bold-65" x="239.794922"/>
     <use xlink:href="#DejaVuSans-Bold-6c" x="307.617188"/>
     <use xlink:href="#DejaVuSans-Bold-20" x="341.894531"/>
     <use xlink:href="#DejaVuSans-Bold-49" x="376.708984"/>
     <use xlink:href="#DejaVuSans-Bold-6e" x="413.916016"/>
     <use xlink:href="#DejaVuSans-Bold-74" x="485.107422"/>
     <use xlink:href="#DejaVuSans-Bold-65" x="532.910156"/>
     <use xlink:href="#DejaVuSans-Bold-72" x="600.732422"/>
     <use xlink:href="#DejaVuSans-Bold-70" x="650.048828"/>
     <use xlink:href="#DejaVuSans-Bold-72" x="721.630859"/>
     <use xlink:href="#DejaVuSans-Bold-65" x="770.947266"/>
     <use xlink:href="#DejaVuSans-Bold-74" x="838.769531"/>
     <use xlink:href="#DejaVuSans-Bold-61" x="886.572266"/>
     <use xlink:href="#DejaVuSans-Bold-74" x="954.052734"/>
     <use xlink:href="#DejaVuSans-Bold-69" x="1001.855469"/>
     <use xlink:href="#DejaVuSans-Bold-6f" x="1036.132812"/>
     <use xlink:href="#DejaVuSans-Bold-6e" x="1104.833984"/>
    </g>
   </g>
   <g id="text_18">
    <!-- - Feature Importance Analysis -->
    <g transform="translate(395.985937 178.324175) scale(0.1 -0.1)">
     <use xlink:href="#DejaVuSans-2d"/>
     <use xlink:href="#DejaVuSans-20" x="36.083984"/>
     <use xlink:href="#DejaVuSans-46" x="67.871094"/>
     <use xlink:href="#DejaVuSans-65" x="119.890625"/>
     <use xlink:href="#DejaVuSans-61" x="181.414062"/>
     <use xlink:href="#DejaVuSans-74" x="242.693359"/>
     <use xlink:href="#DejaVuSans-75" x="281.902344"/>
     <use xlink:href="#DejaVuSans-72" x="345.28125"/>
     <use xlink:href="#DejaVuSans-65" x="384.144531"/>
     <use xlink:href="#DejaVuSans-20" x="445.667969"/>
     <use xlink:href="#DejaVuSans-49" x="477.455078"/>
     <use xlink:href="#DejaVuSans-6d" x="506.947266"/>
     <use xlink:href="#DejaVuSans-70" x="604.359375"/>
     <use xlink:href="#DejaVuSans-6f" x="667.835938"/>
     <use xlink:href="#DejaVuSans-72" x="729.017578"/>
     <use xlink:href="#DejaVuSans-74" x="770.130859"/>
     <use xlink:href="#DejaVuSans-61" x="809.339844"/>
     <use xlink:href="#DejaVuSans-6e" x="870.619141"/>
     <use xlink:href="#DejaVuSans-63" x="933.998047"/>
     <use xlink:href="#DejaVuSans-65" x="988.978516"/>
     <use xlink:href="#DejaVuSans-20" x="1050.501953"/>
     <use xlink:href="#DejaVuSans-41" x="1082.289062"/>
     <use xlink:href="#DejaVuSans-6e" x="1150.697266"/>
     <use xlink:href="#DejaVuSans-61" x="1214.076172"/>
     <use xlink:href="#DejaVuSans-6c" x="1275.355469"/>
     <use xlink:href="#DejaVuSans-79" x="1303.138672"/>
     <use xlink:href="#DejaVuSans-73" x="1362.318359"/>
     <use xlink:href="#DejaVuSans-69" x="1414.417969"/>
     <use xlink:href="#DejaVuSans-73" x="1442.201172"/>
    </g>
   </g>
   <g id="text_19">
    <!-- - Partial Dependence Plots -->
    <g transform="translate(404.797656 196.064975) scale(0.1 -0.1)">
     <use xlink:href="#DejaVuSans-2d"/>
     <use xlink:href="#DejaVuSans-20" x="36.083984"/>
     <use xlink:href="#DejaVuSans-50" x="67.871094"/>
     <use xlink:href="#DejaVuSans-61" x="123.673828"/>
     <use xlink:href="#DejaVuSans-72" x="184.953125"/>
     <use xlink:href="#DejaVuSans-74" x="226.066406"/>
     <use xlink:href="#DejaVuSans-69" x="265.275391"/>
     <use xlink:href="#DejaVuSans-61" x="293.058594"/>
     <use xlink:href="#DejaVuSans-6c" x="354.337891"/>
     <use xlink:href="#DejaVuSans-20" x="382.121094"/>
     <use xlink:href="#DejaVuSans-44" x="413.908203"/>
     <use xlink:href="#DejaVuSans-65" x="490.910156"/>
     <use xlink:href="#DejaVuSans-70" x="552.433594"/>
     <use xlink:href="#DejaVuSans-65" x="615.910156"/>
     <use xlink:href="#DejaVuSans-6e" x="677.433594"/>
     <use xlink:href="#DejaVuSans-64" x="740.8125"/>
     <use xlink:href="#DejaVuSans-65" x="804.289062"/>
     <use xlink:href="#DejaVuSans-6e" x="865.8125"/>
     <use xlink:href="#DejaVuSans-63" x="929.191406"/>
     <use xlink:href="#DejaVuSans-65" x="984.171875"/>
     <use xlink:href="#DejaVuSans-20" x="1045.695312"/>
     <use xlink:href="#DejaVuSans-50" x="1077.482422"/>
     <use xlink:href="#DejaVuSans-6c" x="1137.785156"/>
     <use xlink:href="#DejaVuSans-6f" x="1165.568359"/>
     <use xlink:href="#DejaVuSans-74" x="1226.75"/>
     <use xlink:href="#DejaVuSans-73" x="1265.958984"/>
    </g>
   </g>
   <g id="text_20">
    <g id="patch_7">
     <path d="M 405.486562 240.64095 
L 535.913437 240.64095 
Q 541.913437 240.64095 541.913437 234.64095 
L 541.913437 222.93345 
Q 541.913437 216.93345 535.913437 216.93345 
L 405.486562 216.93345 
Q 399.486562 216.93345 399.486562 222.93345 
L 399.486562 234.64095 
Q 399.486562 240.64095 405.486562 240.64095 
z
" style="fill: #aed6f1; stroke: #000000; stroke-linejoin: miter"/>
    </g>
    <!-- Actionable Insights -->
    <g transform="translate(405.486562 232.051575) scale(0.12 -0.12)">
     <defs>
      <path id="DejaVuSans-Bold-41" d="M 3419 850 
L 1538 850 
L 1241 0 
L 31 0 
L 1759 4666 
L 3194 4666 
L 4922 0 
L 3713 0 
L 3419 850 
z
M 1838 1716 
L 3116 1716 
L 2478 3572 
L 1838 1716 
z
" transform="scale(0.015625)"/>
      <path id="DejaVuSans-Bold-62" d="M 2400 722 
Q 2759 722 2948 984 
Q 3138 1247 3138 1747 
Q 3138 2247 2948 2509 
Q 2759 2772 2400 2772 
Q 2041 2772 1848 2508 
Q 1656 2244 1656 1747 
Q 1656 1250 1848 986 
Q 2041 722 2400 722 
z
M 1656 2988 
Q 1888 3294 2169 3439 
Q 2450 3584 2816 3584 
Q 3463 3584 3878 3070 
Q 4294 2556 4294 1747 
Q 4294 938 3878 423 
Q 3463 -91 2816 -91 
Q 2450 -91 2169 54 
Q 1888 200 1656 506 
L 1656 0 
L 538 0 
L 538 4863 
L 1656 4863 
L 1656 2988 
z
" transform="scale(0.015625)"/>
      <path id="DejaVuSans-Bold-68" d="M 4056 2131 
L 4056 0 
L 2931 0 
L 2931 347 
L 2931 1625 
Q 2931 2084 2911 2256 
Q 2891 2428 2841 2509 
Q 2775 2619 2662 2680 
Q 2550 2741 2406 2741 
Q 2056 2741 1856 2470 
Q 1656 2200 1656 1722 
L 1656 0 
L 538 0 
L 538 4863 
L 1656 4863 
L 1656 2988 
Q 1909 3294 2193 3439 
Q 2478 3584 2822 3584 
Q 3428 3584 3742 3212 
Q 4056 2841 4056 2131 
z
" transform="scale(0.015625)"/>
     </defs>
     <use xlink:href="#DejaVuSans-Bold-41"/>
     <use xlink:href="#DejaVuSans-Bold-63" x="77.392578"/>
     <use xlink:href="#DejaVuSans-Bold-74" x="136.669922"/>
     <use xlink:href="#DejaVuSans-Bold-69" x="184.472656"/>
     <use xlink:href="#DejaVuSans-Bold-6f" x="218.75"/>
     <use xlink:href="#DejaVuSans-Bold-6e" x="287.451172"/>
     <use xlink:href="#DejaVuSans-Bold-61" x="358.642578"/>
     <use xlink:href="#DejaVuSans-Bold-62" x="426.123047"/>
     <use xlink:href="#DejaVuSans-Bold-6c" x="497.705078"/>
     <use xlink:href="#DejaVuSans-Bold-65" x="531.982422"/>
     <use xlink:href="#DejaVuSans-Bold-20" x="599.804688"/>
     <use xlink:href="#DejaVuSans-Bold-49" x="634.619141"/>
     <use xlink:href="#DejaVuSans-Bold-6e" x="671.826172"/>
     <use xlink:href="#DejaVuSans-Bold-73" x="743.017578"/>
     <use xlink:href="#DejaVuSans-Bold-69" x="802.539062"/>
     <use xlink:href="#DejaVuSans-Bold-67" x="836.816406"/>
     <use xlink:href="#DejaVuSans-Bold-68" x="908.398438"/>
     <use xlink:href="#DejaVuSans-Bold-74" x="979.589844"/>
     <use xlink:href="#DejaVuSans-Bold-73" x="1027.392578"/>
    </g>
   </g>
   <g id="text_21">
    <!-- - Identify At-Risk Students -->
    <g transform="translate(405.505469 267.028175) scale(0.1 -0.1)">
     <defs>
      <path id="DejaVuSans-66" d="M 2375 4863 
L 2375 4384 
L 1825 4384 
Q 1516 4384 1395 4259 
Q 1275 4134 1275 3809 
L 1275 3500 
L 2222 3500 
L 2222 3053 
L 1275 3053 
L 1275 0 
L 697 0 
L 697 3053 
L 147 3053 
L 147 3500 
L 697 3500 
L 697 3744 
Q 697 4328 969 4595 
Q 1241 4863 1831 4863 
L 2375 4863 
z
" transform="scale(0.015625)"/>
      <path id="DejaVuSans-6b" d="M 581 4863 
L 1159 4863 
L 1159 1991 
L 2875 3500 
L 3609 3500 
L 1753 1863 
L 3688 0 
L 2938 0 
L 1159 1709 
L 1159 0 
L 581 0 
L 581 4863 
z
" transform="scale(0.015625)"/>
     </defs>
     <use xlink:href="#DejaVuSans-2d"/>
     <use xlink:href="#DejaVuSans-20" x="36.083984"/>
     <use xlink:href="#DejaVuSans-49" x="67.871094"/>
     <use xlink:href="#DejaVuSans-64" x="97.363281"/>
     <use xlink:href="#DejaVuSans-65" x="160.839844"/>
     <use xlink:href="#DejaVuSans-6e" x="222.363281"/>
     <use xlink:href="#DejaVuSans-74" x="285.742188"/>
     <use xlink:href="#DejaVuSans-69" x="324.951172"/>
     <use xlink:href="#DejaVuSans-66" x="352.734375"/>
     <use xlink:href="#DejaVuSans-79" x="386.189453"/>
     <use xlink:href="#DejaVuSans-20" x="445.369141"/>
     <use xlink:href="#DejaVuSans-41" x="477.15625"/>
     <use xlink:href="#DejaVuSans-74" x="543.814453"/>
     <use xlink:href="#DejaVuSans-2d" x="583.023438"/>
     <use xlink:href="#DejaVuSans-52" x="619.107422"/>
     <use xlink:href="#DejaVuSans-69" x="688.589844"/>
     <use xlink:href="#DejaVuSans-73" x="716.373047"/>
     <use xlink:href="#DejaVuSans-6b" x="768.472656"/>
     <use xlink:href="#DejaVuSans-20" x="826.382812"/>
     <use xlink:href="#DejaVuSans-53" x="858.169922"/>
     <use xlink:href="#DejaVuSans-74" x="921.646484"/>
     <use xlink:href="#DejaVuSans-75" x="960.855469"/>
     <use xlink:href="#DejaVuSans-64" x="1024.234375"/>
     <use xlink:href="#DejaVuSans-65" x="1087.710938"/>
     <use xlink:href="#DejaVuSans-6e" x="1149.234375"/>
     <use xlink:href="#DejaVuSans-74" x="1212.613281"/>
     <use xlink:href="#DejaVuSans-73" x="1251.822266"/>
    </g>
   </g>
   <g id="text_22">
    <!-- - Inform Policy &amp; Interventions -->
    <g transform="translate(394.836719 284.768975) scale(0.1 -0.1)">
     <defs>
      <path id="DejaVuSans-26" d="M 1556 2509 
Q 1272 2256 1139 2004 
Q 1006 1753 1006 1478 
Q 1006 1022 1337 719 
Q 1669 416 2169 416 
Q 2466 416 2725 514 
Q 2984 613 3213 813 
L 1556 2509 
z
M 1997 2859 
L 3584 1234 
Q 3769 1513 3872 1830 
Q 3975 2147 3994 2503 
L 4575 2503 
Q 4538 2091 4375 1687 
Q 4213 1284 3922 891 
L 4794 0 
L 4006 0 
L 3559 459 
Q 3234 181 2878 45 
Q 2522 -91 2113 -91 
Q 1359 -91 881 339 
Q 403 769 403 1441 
Q 403 1841 612 2192 
Q 822 2544 1241 2853 
Q 1091 3050 1012 3245 
Q 934 3441 934 3628 
Q 934 4134 1281 4442 
Q 1628 4750 2203 4750 
Q 2463 4750 2720 4694 
Q 2978 4638 3244 4525 
L 3244 3956 
Q 2972 4103 2725 4179 
Q 2478 4256 2266 4256 
Q 1938 4256 1733 4082 
Q 1528 3909 1528 3634 
Q 1528 3475 1620 3314 
Q 1713 3153 1997 2859 
z
" transform="scale(0.015625)"/>
      <path id="DejaVuSans-76" d="M 191 3500 
L 800 3500 
L 1894 563 
L 2988 3500 
L 3597 3500 
L 2284 0 
L 1503 0 
L 191 3500 
z
" transform="scale(0.015625)"/>
     </defs>
     <use xlink:href="#DejaVuSans-2d"/>
     <use xlink:href="#DejaVuSans-20" x="36.083984"/>
     <use xlink:href="#DejaVuSans-49" x="67.871094"/>
     <use xlink:href="#DejaVuSans-6e" x="97.363281"/>
     <use xlink:href="#DejaVuSans-66" x="160.742188"/>
     <use xlink:href="#DejaVuSans-6f" x="195.947266"/>
     <use xlink:href="#DejaVuSans-72" x="257.128906"/>
     <use xlink:href="#DejaVuSans-6d" x="296.492188"/>
     <use xlink:href="#DejaVuSans-20" x="393.904297"/>
     <use xlink:href="#DejaVuSans-50" x="425.691406"/>
     <use xlink:href="#DejaVuSans-6f" x="482.369141"/>
     <use xlink:href="#DejaVuSans-6c" x="543.550781"/>
     <use xlink:href="#DejaVuSans-69" x="571.333984"/>
     <use xlink:href="#DejaVuSans-63" x="599.117188"/>
     <use xlink:href="#DejaVuSans-79" x="654.097656"/>
     <use xlink:href="#DejaVuSans-20" x="713.277344"/>
     <use xlink:href="#DejaVuSans-26" x="745.064453"/>
     <use xlink:href="#DejaVuSans-20" x="823.042969"/>
     <use xlink:href="#DejaVuSans-49" x="854.830078"/>
     <use xlink:href="#DejaVuSans-6e" x="884.322266"/>
     <use xlink:href="#DejaVuSans-74" x="947.701172"/>
     <use xlink:href="#DejaVuSans-65" x="986.910156"/>
     <use xlink:href="#DejaVuSans-72" x="1048.433594"/>
     <use xlink:href="#DejaVuSans-76" x="1089.546875"/>
     <use xlink:href="#DejaVuSans-65" x="1148.726562"/>
     <use xlink:href="#DejaVuSans-6e" x="1210.25"/>
     <use xlink:href="#DejaVuSans-74" x="1273.628906"/>
     <use xlink:href="#DejaVuSans-69" x="1312.837891"/>
     <use xlink:href="#DejaVuSans-6f" x="1340.621094"/>
     <use xlink:href="#DejaVuSans-6e" x="1401.802734"/>
     <use xlink:href="#DejaVuSans-73" x="1465.181641"/>
    </g>
   </g>
   <g id="patch_8">
    <path d="M 219.6 159.824496 
Q 219.6 202.17739 219.6 242.853233 
" style="fill: none; stroke: #000000; stroke-width: 1.5; stroke-linecap: round"/>
    <path d="M 221.6 238.853233 
L 219.6 242.853233 
L 217.6 238.853233 
" style="fill: none; stroke: #000000; stroke-width: 1.5; stroke-linecap: round"/>
   </g>
   <g id="patch_9">
    <path d="M 219.6 248.528496 
Q 219.6 290.88139 219.6 331.557233 
" style="fill: none; stroke: #000000; stroke-width: 1.5; stroke-linecap: round"/>
    <path d="M 221.6 327.557233 
L 219.6 331.557233 
L 217.6 327.557233 
" style="fill: none; stroke: #000000; stroke-width: 1.5; stroke-linecap: round"/>
   </g>
   <g id="patch_10">
    <path d="M 219.6 337.232496 
Q 219.6 379.58539 219.6 420.261233 
" style="fill: none; stroke: #000000; stroke-width: 1.5; stroke-linecap: round"/>
    <path d="M 221.6 416.261233 
L 219.6 420.261233 
L 217.6 416.261233 
" style="fill: none; stroke: #000000; stroke-width: 1.5; stroke-linecap: round"/>
   </g>
   <g id="patch_11">
    <path d="M 498.6 159.824496 
Q 498.6 202.17739 498.6 242.853233 
" style="fill: none; stroke: #000000; stroke-width: 1.5; stroke-linecap: round"/>
    <path d="M 500.6 238.853233 
L 498.6 242.853233 
L 496.6 238.853233 
" style="fill: none; stroke: #000000; stroke-width: 1.5; stroke-linecap: round"/>
   </g>
   <g id="patch_12">
    <path d="M 221.287981 422.862662 
Q 359.100875 335.231444 495.49859 248.500097 
" style="fill: none; stroke: #000000; stroke-width: 1.5; stroke-linecap: round"/>
    <path d="M 491.050032 248.958715 
L 495.49859 248.500097 
L 493.19635 252.334114 
" style="fill: none; stroke: #000000; stroke-width: 1.5; stroke-linecap: round"/>
   </g>
  </g>
 </g>
</svg>
